<svg id="Groupe_31291" data-name="Groupe 31291" xmlns="http://www.w3.org/2000/svg" width="18.83" height="17.576" viewBox="0 0 18.83 17.576">
  <g id="np_cart_117629_000000">
    <path id="Tracé_4217" data-name="Tracé 4217" d="M23.705,14.431a.819.819,0,0,0-.669-.4L9.812,13.427l-.46-1.8A.83.83,0,0,0,8.537,11h-2.7a.837.837,0,1,0,0,1.674H7.888l2.3,8.955-.565,2.343a.848.848,0,0,0,.146.711A.812.812,0,0,0,10.42,25H20.672a.837.837,0,0,0,0-1.674H11.508l.23-.963,8.369-.4a.842.842,0,0,0,.711-.481L23.748,15.2a.79.79,0,0,0-.043-.774Zm-4.185,5.9-7.8.356-1.4-5.566,11.4.523Z" transform="translate(-5 -11)" fill="#e5a98f"/>
    <path id="Tracé_4218" data-name="Tracé 4218" d="M29.138,81.569A1.569,1.569,0,1,1,27.569,80a1.57,1.57,0,0,1,1.569,1.569" transform="translate(-21.606 -65.563)" fill="#e5a98f"/>
    <path id="Tracé_4219" data-name="Tracé 4219" d="M74.138,81.569A1.569,1.569,0,1,1,72.569,80a1.57,1.57,0,0,1,1.569,1.569" transform="translate(-57.191 -65.563)" fill="#e5a98f"/>
  </g>
</svg>
